<svg xmlns="http://www.w3.org/2000/svg" width="17" height="10" viewBox="0 0 17 10" fill="none">
  <path fill-rule="evenodd" clip-rule="evenodd" d="M10.7931 0.299012C10.9806 0.111541 11.235 0.00622559 11.5001 0.00622559C11.7653 0.00622559 12.0196 0.111541 12.2071 0.299012L16.2071 4.29901C16.3946 4.48654 16.4999 4.74085 16.4999 5.00601C16.4999 5.27118 16.3946 5.52548 16.2071 5.71301L12.2071 9.71301C12.0185 9.89517 11.7659 9.99596 11.5037 9.99369C11.2415 9.99141 10.9907 9.88624 10.8053 9.70083C10.6199 9.51542 10.5147 9.26461 10.5124 9.00241C10.5102 8.74022 10.611 8.48761 10.7931 8.29901L13.0861 6.00601L1.50012 6.00601C1.23491 6.00601 0.980552 5.90065 0.793015 5.71312C0.605479 5.52558 0.500122 5.27123 0.500122 5.00601C0.500122 4.7408 0.605479 4.48644 0.793015 4.29891C0.980552 4.11137 1.23491 4.00601 1.50012 4.00601L13.0861 4.00601L10.7931 1.71301C10.6057 1.52548 10.5003 1.27118 10.5003 1.00601C10.5003 0.740848 10.6057 0.48654 10.7931 0.299012Z" fill="#fff"/>
</svg>