<svg xmlns="http://www.w3.org/2000/svg" width="57" height="56" viewBox="0 0 57 56" fill="none">
  <path fill-rule="evenodd" clip-rule="evenodd" d="M26.3334 22C25.2725 22 24.2551 22.4214 23.5049 23.1716C22.7548 23.9217 22.3334 24.9391 22.3334 26C22.3334 27.0609 22.7548 28.0783 23.5049 28.8284C24.2551 29.5786 25.2725 30 26.3334 30C27.3942 30 28.4117 29.5786 29.1618 28.8284C29.9119 28.0783 30.3334 27.0609 30.3334 26C30.3334 24.9391 29.9119 23.9217 29.1618 23.1716C28.4117 22.4214 27.3942 22 26.3334 22ZM20.3334 26C20.3333 25.0557 20.556 24.1247 20.9835 23.2827C21.4111 22.4408 22.0313 21.7116 22.7938 21.1545C23.5562 20.5975 24.4394 20.2282 25.3715 20.0768C26.3036 19.9255 27.2583 19.9962 28.1578 20.2834C29.0574 20.5705 29.8765 21.0659 30.5485 21.7293C31.2206 22.3927 31.7265 23.2053 32.0252 24.1011C32.324 24.9969 32.407 25.9506 32.2677 26.8846C32.1284 27.8185 31.7706 28.7064 31.2234 29.476L36.0404 34.293C36.2225 34.4816 36.3233 34.7342 36.321 34.9964C36.3188 35.2586 36.2136 35.5094 36.0282 35.6948C35.8428 35.8802 35.592 35.9854 35.3298 35.9877C35.0676 35.99 34.815 35.8892 34.6264 35.707L29.8104 30.891C28.9127 31.5293 27.8567 31.9082 26.758 31.9861C25.6594 32.0641 24.5604 31.8381 23.5817 31.333C22.6029 30.8278 21.7821 30.063 21.2091 29.1224C20.6361 28.1817 20.3332 27.1014 20.3334 26Z" fill="#333"/>
</svg>